 <svg  version="1.0" xmlns="http://www.w3.org/2000/svg"  width="300.000000pt" height="300.000000pt" viewBox="0 0 300.000000 300.000000"  preserveAspectRatio="xMidYMid meet">  <g transform="translate(0.000000,300.000000) scale(0.100000,-0.100000)" fill="#0d0d0f" stroke="none"> <path d="M1144 1960 c-69 -15 -124 -77 -124 -140 0 -64 42 -119 120 -158 l25 -12 -27 5 c-14 3 -33 7 -41 10 -8 4 -28 -5 -45 -19 -16 -15 -35 -26 -41 -26 -13 0 -13 2 -11 126 1 89 0 92 -32 135 l-34 44 -79 5 c-53 3 -87 1 -103 -7 -21 -11 -28 -10 -54 12 -37 31 -87 33 -114 4 -16 -18 -19 -39 -22 -138 -3 -149 -6 -161 -36 -161 -27 0 -70 -58 -64 -86 5 -29 53 -56 96 -56 44 1 74 13 108 43 18 17 38 19 165 20 79 0 151 4 158 9 10 6 20 1 33 -15 19 -25 81 -51 135 -59 51 -7 129 21 159 57 l26 31 27 -31 c14 -17 36 -36 48 -42 35 -18 91 -13 123 11 l30 22 39 -22 c73 -41 163 -30 240 30 24 18 24 18 35 -4 24 -47 95 -58 129 -20 8 10 17 48 20 89 6 78 11 93 32 93 15 0 25 -22 25 -57 0 -47 45 -109 97 -134 105 -51 243 -5 243 81 0 15 7 34 16 41 23 19 13 90 -20 140 -51 77 -152 100 -241 55 l-48 -25 -30 25 c-23 20 -36 24 -56 18 -14 -4 -49 -6 -76 -5 -39 1 -55 -3 -73 -19 -12 -11 -22 -25 -22 -30 0 -14 -16 -12 -32 3 -32 30 -71 47 -122 53 -48 6 -63 3 -110 -20 l-55 -27 -33 35 c-18 19 -41 46 -51 60 -21 31 -80 36 -109 9 -17 -15 -20 -15 -41 5 -40 37 -120 56 -183 42z m106 -40 c59 -17 64 -23 46 -58 -16 -31 -16 -31 -52 -16 -44 18 -83 15 -98 -8 -17 -27 2 -47 68 -74 33 -13 67 -31 77 -40 40 -37 31 -125 -17 -163 -37 -29 -102 -36 -168 -17 -30 9 -58 20 -61 26 -3 5 3 22 12 38 l18 29 35 -18 c48 -26 95 -25 114 3 22 32 4 54 -69 83 -74 30 -95 54 -95 109 0 90 83 136 190 106z m-572 -159 l-3 -160 -29 -30 c-33 -34 -77 -47 -122 -34 -28 7 -30 10 -22 39 7 27 12 31 33 26 16 -3 33 2 45 13 18 16 20 32 20 162 l0 143 41 0 40 0 -3 -159z m252 119 c0 -19 -7 -20 -90 -20 -83 0 -90 1 -90 20 0 19 7 20 90 20 83 0 90 -1 90 -20z m530 -26 c0 -45 0 -45 33 -42 30 3 32 1 35 -29 3 -32 2 -33 -33 -33 l-36 0 3 -72 c3 -71 4 -73 30 -76 18 -2 28 -11 33 -29 8 -33 2 -38 -51 -38 -70 0 -88 26 -93 130 -3 76 -5 85 -22 85 -15 0 -19 7 -19 36 0 31 3 35 20 29 18 -6 20 -2 20 39 l0 46 40 0 40 0 0 -46z m-500 -104 l0 -100 -120 0 -120 0 0 100 0 100 120 0 120 0 0 -100z m842 45 c79 -58 77 -179 -4 -236 -44 -32 -134 -33 -174 -3 -93 69 -93 187 1 246 40 25 138 21 177 -7z m188 -7 c1 -30 2 -31 12 -13 16 30 39 45 68 45 24 0 26 -3 22 -35 -4 -31 -8 -35 -32 -35 -16 0 -35 -7 -44 -15 -19 -19 -30 -94 -22 -151 l6 -44 -43 0 -42 0 2 137 c2 76 3 139 3 141 0 1 16 2 35 2 33 0 35 -2 35 -32z m367 12 c39 -23 63 -67 63 -115 l0 -35 -111 0 -111 0 14 -22 c22 -34 77 -45 118 -24 31 15 35 15 52 0 26 -24 23 -30 -25 -53 -55 -26 -99 -27 -153 0 -77 37 -104 135 -58 207 39 60 146 82 211 42z m-1057 -15 c0 -9 -6 -12 -15 -9 -8 4 -12 10 -9 15 8 14 24 10 24 -6z m-334 -162 c7 -10 14 -21 14 -25 0 -5 -63 -8 -140 -8 -77 0 -140 3 -140 7 0 3 7 15 17 25 14 15 32 18 126 18 93 0 112 -3 123 -17z"/> <path d="M815 1880 c-4 -6 7 -10 24 -10 17 0 31 5 31 10 0 6 -11 10 -24 10 -14 0 -28 -4 -31 -10z"/> <path d="M803 1828 c2 -7 19 -13 37 -13 18 0 35 6 38 13 2 8 -9 12 -38 12 -29 0 -40 -4 -37 -12z"/> <path d="M780 1736 c0 -25 -4 -48 -10 -51 -27 -17 -2 -25 77 -25 82 0 85 1 70 18 -11 12 -14 29 -10 60 5 38 4 42 -16 42 -12 0 -21 -6 -21 -15 0 -9 -9 -15 -25 -15 -16 0 -25 6 -25 15 0 8 -9 15 -20 15 -17 0 -20 -7 -20 -44z"/> <path d="M830 1770 c0 -5 7 -10 15 -10 8 0 15 5 15 10 0 6 -7 10 -15 10 -8 0 -15 -4 -15 -10z"/> <path d="M1674 1748 c-24 -11 -44 -48 -44 -79 0 -31 44 -69 80 -69 68 0 98 96 44 139 -29 23 -48 25 -80 9z m64 -64 c6 -41 -50 -56 -60 -16 -8 29 3 43 31 40 17 -2 27 -10 29 -24z"/> <path d="M2220 1740 c-33 -33 -24 -40 55 -40 43 0 75 4 75 10 0 23 -41 50 -75 50 -22 0 -43 -8 -55 -20z"/> <path d="M760 1615 c-11 -13 -1 -15 78 -15 77 0 90 2 86 15 -5 11 -23 15 -79 15 -52 0 -76 -4 -85 -15z"/> <path d="M1448 570 c-171 -7 -182 -24 -177 -254 l4 -138 33 -29 32 -29 159 0 c154 0 159 1 185 25 40 37 46 64 45 202 0 221 -18 234 -281 223z m224 -57 c16 -14 18 -34 18 -169 l0 -153 -26 -20 c-24 -19 -40 -21 -164 -21 -124 0 -140 2 -164 21 l-26 20 0 151 c0 127 3 154 17 170 14 16 34 18 171 18 131 0 158 -3 174 -17z"/> <path d="M1418 368 c-3 -70 -6 -83 -20 -82 -9 1 -19 -7 -21 -17 -4 -15 0 -19 23 -19 45 0 60 31 60 122 0 71 -2 78 -20 78 -17 0 -19 -8 -22 -82z"/> <path d="M1490 430 c0 -18 6 -21 43 -19 23 1 50 -2 60 -6 11 -5 17 -3 17 7 0 26 -23 38 -72 38 -42 0 -48 -3 -48 -20z"/> <path d="M1490 367 c0 -13 5 -28 12 -35 17 -17 48 -15 48 3 0 8 -5 14 -11 13 -6 -2 -14 3 -16 10 -3 8 5 12 22 12 25 0 26 -2 23 -42 l-3 -43 -42 2 c-37 1 -43 -1 -43 -18 0 -16 7 -19 55 -19 65 0 75 12 75 89 l0 51 -60 0 c-56 0 -60 -2 -60 -23z"/> </g> </svg> 